<svg width="613" height="149" viewBox="0 0 613 149" fill="none" xmlns="http://www.w3.org/2000/svg">
<path d="M612.441 62.4961C612.441 62.9128 612.296 63.2773 612.004 63.5898C611.733 63.9023 611.389 64.0794 610.973 64.1211C610.577 64.1836 610.181 64.2357 609.785 64.2773C609.41 64.2982 609.014 64.3294 608.598 64.3711C608.452 64.9544 608.243 65.7773 607.973 66.8398C607.723 67.8815 607.421 69.0794 607.066 70.4336C606.712 71.7878 606.327 73.2565 605.91 74.8398C605.514 76.4232 605.098 78.0378 604.66 79.6836C604.223 81.3294 603.775 82.9648 603.316 84.5898C602.858 86.2148 602.41 87.7565 601.973 89.2148C601.556 90.6523 601.15 91.9648 600.754 93.1523C600.379 94.319 600.035 95.2878 599.723 96.0586C598.868 98.1003 597.848 100.09 596.66 102.027C595.493 103.986 594.139 105.725 592.598 107.246C591.077 108.767 589.368 109.986 587.473 110.902C585.577 111.84 583.493 112.309 581.223 112.309C579.806 112.309 578.441 112.111 577.129 111.715C575.816 111.34 574.66 110.767 573.66 109.996C572.66 109.225 571.858 108.277 571.254 107.152C570.65 106.048 570.348 104.757 570.348 103.277C570.348 102.34 570.483 101.402 570.754 100.465C571.004 99.5482 571.389 98.7253 571.91 97.9961C572.41 97.2878 573.035 96.7044 573.785 96.2461C574.535 95.8086 575.41 95.5898 576.41 95.5898C577.181 95.5898 577.9 95.7357 578.566 96.0273C579.254 96.319 579.848 96.7148 580.348 97.2148C580.848 97.7148 581.243 98.2982 581.535 98.9648C581.827 99.6523 581.973 100.382 581.973 101.152C581.973 101.923 581.827 102.642 581.535 103.309C581.243 103.996 580.848 104.59 580.348 105.09C579.848 105.611 579.254 106.017 578.566 106.309C577.9 106.6 577.181 106.746 576.41 106.746C576.056 106.746 575.723 106.715 575.41 106.652C575.098 106.59 574.796 106.507 574.504 106.402C574.983 107.007 575.535 107.486 576.16 107.84C576.785 108.215 577.462 108.402 578.191 108.402C579.108 108.402 579.983 108.121 580.816 107.559C581.65 107.017 582.431 106.309 583.16 105.434C583.91 104.559 584.598 103.579 585.223 102.496C585.848 101.413 586.41 100.329 586.91 99.2461C587.431 98.1628 587.879 97.1419 588.254 96.1836C588.629 95.2253 588.931 94.4336 589.16 93.8086C589.327 93.3503 589.483 92.8711 589.629 92.3711C589.796 91.8503 589.973 91.3086 590.16 90.7461C587.868 87.6211 586.035 84.7044 584.66 81.9961C583.285 79.2878 582.212 76.8398 581.441 74.6523C580.691 72.4648 580.181 70.569 579.91 68.9648C579.66 67.3398 579.514 66.0586 579.473 65.1211C578.681 65.1211 577.879 65.1107 577.066 65.0898C576.275 65.0482 575.483 64.9753 574.691 64.8711C574.275 64.8294 573.921 64.6628 573.629 64.3711C573.358 64.0586 573.223 63.694 573.223 63.2773C573.223 62.819 573.389 62.4336 573.723 62.1211C574.077 61.7878 574.462 61.6211 574.879 61.6211H575.066C575.796 61.7253 576.535 61.7982 577.285 61.8398C578.056 61.8607 578.837 61.8711 579.629 61.8711C580.837 61.8711 582.056 61.8294 583.285 61.7461C584.535 61.6419 585.806 61.4857 587.098 61.2773C587.181 61.2357 587.264 61.2148 587.348 61.2148C587.827 61.2148 588.223 61.3919 588.535 61.7461C588.868 62.1003 589.035 62.4857 589.035 62.9023C589.035 63.2773 588.9 63.6211 588.629 63.9336C588.379 64.2461 588.046 64.4336 587.629 64.4961C586.775 64.6211 585.941 64.7357 585.129 64.8398C584.337 64.9232 583.546 64.9961 582.754 65.0586C582.775 65.8086 582.889 66.8607 583.098 68.2148C583.327 69.569 583.743 71.1732 584.348 73.0273C584.973 74.8815 585.837 76.9648 586.941 79.2773C588.066 81.5898 589.546 84.0898 591.379 86.7773C591.962 84.7773 592.546 82.6836 593.129 80.4961C593.733 78.2878 594.296 76.1628 594.816 74.1211C595.358 72.0794 595.837 70.2044 596.254 68.4961C596.691 66.7878 597.035 65.4128 597.285 64.3711C596.868 64.3294 596.431 64.2982 595.973 64.2773C595.535 64.2357 595.098 64.1836 594.66 64.1211C594.243 64.0794 593.889 63.9023 593.598 63.5898C593.327 63.2773 593.191 62.9128 593.191 62.4961C593.191 61.9961 593.368 61.6003 593.723 61.3086C594.077 60.9961 594.452 60.8398 594.848 60.8398H595.035C596.327 61.0065 597.608 61.1211 598.879 61.1836C600.171 61.2461 601.473 61.2773 602.785 61.2773C604.077 61.2773 605.368 61.2461 606.66 61.1836C607.973 61.1211 609.285 61.0065 610.598 60.8398H610.785C611.264 60.8398 611.66 61.0169 611.973 61.3711C612.285 61.7044 612.441 62.0794 612.441 62.4961Z" fill="black"/>
<path d="M569.691 73.2461C569.629 73.6628 569.431 74.0065 569.098 74.2773C568.785 74.5482 568.421 74.6836 568.004 74.6836C567.587 74.6836 567.223 74.5378 566.91 74.2461C566.618 73.9544 566.452 73.5794 566.41 73.1211C566.41 72.2253 566.223 71.2878 565.848 70.3086C565.473 69.3294 564.962 68.4336 564.316 67.6211C563.671 66.8086 562.931 66.1419 562.098 65.6211C561.264 65.0794 560.379 64.8086 559.441 64.8086C558.275 64.8086 557.243 65.0586 556.348 65.5586C555.452 66.0378 554.671 66.6836 554.004 67.4961C553.337 68.3086 552.785 69.2357 552.348 70.2773C551.91 71.319 551.556 72.3919 551.285 73.4961C551.014 74.5794 550.816 75.6523 550.691 76.7148C550.587 77.7773 550.535 78.7357 550.535 79.5898C550.535 81.0482 550.691 82.5065 551.004 83.9648C551.337 85.4232 551.837 86.7357 552.504 87.9023C553.171 89.0482 554.025 89.9857 555.066 90.7148C556.108 91.444 557.348 91.8086 558.785 91.8086C559.848 91.8086 560.848 91.569 561.785 91.0898C562.723 90.6107 563.556 89.9961 564.285 89.2461C565.035 88.4753 565.671 87.6315 566.191 86.7148C566.712 85.7982 567.087 84.9023 567.316 84.0273C567.421 83.6315 567.608 83.3086 567.879 83.0586C568.171 82.8086 568.514 82.6836 568.91 82.6836C569.368 82.6836 569.754 82.8607 570.066 83.2148C570.4 83.5482 570.566 83.9232 570.566 84.3398C570.566 84.4648 570.546 84.569 570.504 84.6523C570.358 85.3398 570.108 86.0898 569.754 86.9023C569.4 87.7148 568.931 88.5273 568.348 89.3398C567.785 90.1523 567.098 90.944 566.285 91.7148C565.473 92.4648 564.546 93.1315 563.504 93.7148C562.462 94.2982 561.306 94.7669 560.035 95.1211C558.764 95.4753 557.368 95.6523 555.848 95.6523C553.452 95.6523 551.243 95.2461 549.223 94.4336C547.202 93.6419 545.462 92.5273 544.004 91.0898C542.546 89.6315 541.4 87.8919 540.566 85.8711C539.754 83.8294 539.348 81.5898 539.348 79.1523C539.348 76.5273 539.702 74.0898 540.41 71.8398C541.139 69.5898 542.191 67.6419 543.566 65.9961C544.962 64.3503 546.671 63.0586 548.691 62.1211C550.733 61.1836 553.077 60.7148 555.723 60.7148C558.098 60.7148 560.306 61.194 562.348 62.1523C564.389 63.0898 566.066 64.5065 567.379 66.4023L568.41 60.0273C568.473 59.6315 568.65 59.3086 568.941 59.0586C569.254 58.8086 569.608 58.6836 570.004 58.6836C570.525 58.6836 570.931 58.8607 571.223 59.2148C571.514 59.569 571.66 59.9232 571.66 60.2773V60.5273L569.691 73.2461Z" fill="black"/>
<path d="M536.66 92.5898C536.618 93.0065 536.431 93.3607 536.098 93.6523C535.764 93.9232 535.389 94.0586 534.973 94.0586H534.848C533.848 93.9544 532.879 93.8815 531.941 93.8398C531.025 93.7773 530.118 93.7461 529.223 93.7461C527.91 93.7461 526.65 93.8086 525.441 93.9336C524.254 94.0378 523.087 94.1836 521.941 94.3711C521.9 94.3711 521.848 94.3815 521.785 94.4023C521.743 94.4232 521.702 94.4336 521.66 94.4336C521.223 94.4336 520.837 94.2669 520.504 93.9336C520.171 93.5794 520.004 93.194 520.004 92.7773C520.004 92.4023 520.129 92.0586 520.379 91.7461C520.65 91.4336 520.973 91.2461 521.348 91.1836C522.223 91.0169 523.098 90.8919 523.973 90.8086C524.868 90.7044 525.785 90.6107 526.723 90.5273C526.91 89.8815 527.108 89.0065 527.316 87.9023C527.525 86.7982 527.712 85.6107 527.879 84.3398C528.066 83.069 528.212 81.7878 528.316 80.4961C528.441 79.2044 528.504 78.0482 528.504 77.0273C528.504 75.9648 528.441 74.8086 528.316 73.5586C528.212 72.3086 527.952 71.1419 527.535 70.0586C527.139 68.9544 526.556 68.0378 525.785 67.3086C525.035 66.5794 524.025 66.2148 522.754 66.2148C521.316 66.2148 519.983 66.569 518.754 67.2773C517.525 67.9857 516.462 68.8919 515.566 69.9961C514.691 71.0794 513.993 72.2773 513.473 73.5898C512.973 74.9023 512.723 76.1628 512.723 77.3711V77.4336L512.66 91.1836C513.035 91.2253 513.4 91.2669 513.754 91.3086C514.108 91.3294 514.462 91.3711 514.816 91.4336C515.233 91.4753 515.577 91.6523 515.848 91.9648C516.139 92.2565 516.285 92.6107 516.285 93.0273C516.285 93.4857 516.108 93.8815 515.754 94.2148C515.421 94.5482 515.046 94.7148 514.629 94.7148C514.546 94.7148 514.483 94.6836 514.441 94.6211C513.191 94.4961 511.91 94.3711 510.598 94.2461C509.306 94.1211 507.941 94.0586 506.504 94.0586C505.212 94.0586 503.848 94.1211 502.41 94.2461C500.993 94.3919 499.473 94.6107 497.848 94.9023C497.764 94.944 497.66 94.9648 497.535 94.9648C497.056 94.9648 496.671 94.7878 496.379 94.4336C496.087 94.0794 495.941 93.694 495.941 93.2773C495.941 92.9023 496.056 92.5586 496.285 92.2461C496.514 91.9336 496.827 91.7461 497.223 91.6836C497.993 91.5169 498.733 91.3919 499.441 91.3086C500.15 91.2044 500.858 91.1211 501.566 91.0586V67.1836C500.254 67.1211 499.15 67.0482 498.254 66.9648C497.379 66.8607 496.889 66.7878 496.785 66.7461C496.368 66.7044 496.025 66.5273 495.754 66.2148C495.504 65.9023 495.379 65.5378 495.379 65.1211C495.379 64.6211 495.556 64.2253 495.91 63.9336C496.264 63.6211 496.639 63.4648 497.035 63.4648C497.118 63.4648 497.181 63.4857 497.223 63.5273C497.243 63.5273 497.483 63.5482 497.941 63.5898C498.4 63.6315 498.993 63.6836 499.723 63.7461C500.473 63.8086 501.316 63.8607 502.254 63.9023C503.191 63.944 504.16 63.9648 505.16 63.9648C506.16 63.9648 507.139 63.944 508.098 63.9023C509.056 63.8398 509.931 63.7148 510.723 63.5273C510.764 63.5273 510.806 63.5169 510.848 63.4961C510.91 63.4753 510.973 63.4648 511.035 63.4648C511.514 63.4648 511.91 63.6419 512.223 63.9961C512.556 64.3294 512.723 64.7044 512.723 65.1211V68.3398C513.931 66.569 515.368 65.2357 517.035 64.3398C518.723 63.4232 520.629 62.9648 522.754 62.9648C524.004 62.9648 525.087 63.1836 526.004 63.6211C526.941 64.0378 527.743 64.6107 528.41 65.3398C529.098 66.069 529.65 66.9128 530.066 67.8711C530.504 68.8086 530.848 69.7982 531.098 70.8398C531.368 71.8815 531.546 72.944 531.629 74.0273C531.733 75.0898 531.785 76.0898 531.785 77.0273C531.785 78.069 531.733 79.2148 531.629 80.4648C531.525 81.694 531.389 82.9232 531.223 84.1523C531.077 85.3815 530.9 86.5482 530.691 87.6523C530.504 88.7565 530.316 89.694 530.129 90.4648C530.921 90.5065 531.733 90.5482 532.566 90.5898C533.421 90.6315 534.285 90.7044 535.16 90.8086C535.639 90.8503 536.004 91.0586 536.254 91.4336C536.525 91.7878 536.66 92.1732 536.66 92.5898Z" fill="black"/>
<path d="M489.004 77.4961V76.9648C489.004 75.4023 488.837 73.9544 488.504 72.6211C488.171 71.2878 487.639 70.1107 486.91 69.0898C486.202 68.0482 485.285 67.194 484.16 66.5273C483.035 65.8607 481.681 65.4128 480.098 65.1836C478.993 65.3086 478.035 65.6107 477.223 66.0898C476.41 66.569 475.712 67.1628 475.129 67.8711C474.566 68.5586 474.098 69.3398 473.723 70.2148C473.348 71.0898 473.046 71.9961 472.816 72.9336C472.608 73.8503 472.452 74.7773 472.348 75.7148C472.243 76.6315 472.181 77.4961 472.16 78.3086C472.493 78.4128 472.91 78.5273 473.41 78.6523C473.931 78.7773 474.514 78.9023 475.16 79.0273C475.806 79.1315 476.504 79.2253 477.254 79.3086C478.025 79.3711 478.827 79.4023 479.66 79.4023C481.431 79.4023 483.087 79.2357 484.629 78.9023C486.191 78.569 487.65 78.1003 489.004 77.4961ZM492.191 78.7148C492.129 79.2565 491.837 79.7253 491.316 80.1211C490.796 80.5169 490.139 80.8711 489.348 81.1836C488.556 81.4753 487.681 81.7253 486.723 81.9336C485.785 82.1211 484.858 82.2773 483.941 82.4023C483.025 82.5273 482.181 82.6211 481.41 82.6836C480.639 82.7253 480.035 82.7461 479.598 82.7461C478.077 82.7461 476.671 82.6419 475.379 82.4336C474.108 82.2253 473.056 82.0065 472.223 81.7773C472.348 83.069 472.587 84.3398 472.941 85.5898C473.296 86.8398 473.806 87.9648 474.473 88.9648C475.139 89.944 475.973 90.7461 476.973 91.3711C477.973 91.9753 479.181 92.2773 480.598 92.2773C481.118 92.2773 481.712 92.2148 482.379 92.0898C483.046 91.944 483.702 91.7461 484.348 91.4961C484.993 91.2253 485.587 90.9128 486.129 90.5586C486.671 90.1836 487.098 89.7669 487.41 89.3086C487.764 88.8919 488.191 88.6836 488.691 88.6836C489.129 88.6836 489.514 88.8607 489.848 89.2148C490.181 89.5482 490.348 89.9232 490.348 90.3398C490.348 90.7773 490.212 91.1211 489.941 91.3711C489.441 92.1419 488.743 92.7982 487.848 93.3398C486.952 93.8815 485.983 94.319 484.941 94.6523C483.9 95.0065 482.848 95.2565 481.785 95.4023C480.723 95.569 479.754 95.6523 478.879 95.6523C476.379 95.6523 474.056 95.2044 471.91 94.3086C469.764 93.4336 467.9 92.2253 466.316 90.6836C464.733 89.1419 463.483 87.3294 462.566 85.2461C461.671 83.1628 461.223 80.9128 461.223 78.4961C461.223 75.8503 461.618 73.4961 462.41 71.4336C463.202 69.3503 464.327 67.6003 465.785 66.1836C467.243 64.7461 469.014 63.6628 471.098 62.9336C473.181 62.1836 475.525 61.8086 478.129 61.8086C480.587 61.9128 482.702 62.3294 484.473 63.0586C486.264 63.7878 487.733 64.7982 488.879 66.0898C490.025 67.3815 490.868 68.944 491.41 70.7773C491.973 72.5898 492.254 74.6315 492.254 76.9023C492.254 77.4232 492.243 77.8398 492.223 78.1523C492.202 78.444 492.191 78.6315 492.191 78.7148Z" fill="black"/>
<path d="M442.535 76.4023C442.535 75.2148 442.535 74.1003 442.535 73.0586C442.535 71.9961 442.514 70.9961 442.473 70.0586C442.368 69.8086 442.16 69.4023 441.848 68.8398C441.556 68.2565 441.087 67.6732 440.441 67.0898C439.816 66.4857 438.983 65.9544 437.941 65.4961C436.9 65.0169 435.587 64.7461 434.004 64.6836C431.9 64.6836 430.108 65.0898 428.629 65.9023C427.15 66.694 425.931 67.7773 424.973 69.1523C424.014 70.5273 423.316 72.1315 422.879 73.9648C422.441 75.7982 422.223 77.7357 422.223 79.7773C422.243 81.2982 422.452 82.7669 422.848 84.1836C423.264 85.6003 423.868 86.8607 424.66 87.9648C425.473 89.0482 426.452 89.9232 427.598 90.5898C428.764 91.2357 430.108 91.5586 431.629 91.5586C432.733 91.5586 433.764 91.3086 434.723 90.8086C435.702 90.2878 436.598 89.6107 437.41 88.7773C438.223 87.9232 438.941 86.9648 439.566 85.9023C440.212 84.8398 440.754 83.7461 441.191 82.6211C441.629 81.4961 441.962 80.3919 442.191 79.3086C442.421 78.2253 442.535 77.2565 442.535 76.4023ZM457.441 63.7148C457.441 64.1107 457.306 64.4648 457.035 64.7773C456.785 65.069 456.473 65.2461 456.098 65.3086C455.702 65.3919 455.285 65.4648 454.848 65.5273C454.41 65.569 453.952 65.6107 453.473 65.6523C453.473 66.2982 453.483 67.194 453.504 68.3398C453.525 69.4648 453.535 70.8086 453.535 72.3711C453.535 73.6628 453.525 75.0586 453.504 76.5586C453.483 78.0378 453.452 79.5898 453.41 81.2148C453.368 82.8398 453.306 84.5169 453.223 86.2461C453.16 87.9544 453.066 89.6836 452.941 91.4336C452.775 93.9753 452.243 96.4023 451.348 98.7148C450.452 101.027 449.243 103.059 447.723 104.809C446.202 106.559 444.389 107.954 442.285 108.996C440.181 110.038 437.848 110.559 435.285 110.559C433.535 110.559 431.9 110.267 430.379 109.684C428.879 109.1 427.577 108.298 426.473 107.277C425.368 106.257 424.504 105.048 423.879 103.652C423.254 102.257 422.941 100.746 422.941 99.1211V99.0586C422.941 98.6003 423.098 98.2044 423.41 97.8711C423.723 97.5586 424.118 97.4023 424.598 97.4023C425.056 97.4023 425.431 97.5586 425.723 97.8711C426.035 98.2044 426.191 98.6003 426.191 99.0586C426.191 100.35 426.441 101.496 426.941 102.496C427.441 103.517 428.108 104.382 428.941 105.09C429.796 105.819 430.764 106.371 431.848 106.746C432.931 107.121 434.056 107.309 435.223 107.309C436.348 107.309 437.327 106.934 438.16 106.184C438.993 105.434 439.702 104.267 440.285 102.684C440.868 101.121 441.327 99.1107 441.66 96.6523C442.014 94.2148 442.264 91.2982 442.41 87.9023C441.931 88.8815 441.327 89.7982 440.598 90.6523C439.868 91.4857 439.035 92.2148 438.098 92.8398C437.181 93.4648 436.181 93.9544 435.098 94.3086C434.035 94.6628 432.91 94.8398 431.723 94.8398C429.723 94.8398 427.941 94.4336 426.379 93.6211C424.816 92.8086 423.483 91.7148 422.379 90.3398C421.296 88.9648 420.462 87.3711 419.879 85.5586C419.296 83.7461 418.993 81.8398 418.973 79.8398C418.973 77.3398 419.285 74.9753 419.91 72.7461C420.535 70.4961 421.473 68.5378 422.723 66.8711C423.993 65.2044 425.577 63.8815 427.473 62.9023C429.368 61.9232 431.587 61.4336 434.129 61.4336C435.962 61.4961 437.535 61.7982 438.848 62.3398C440.181 62.8815 441.316 63.5378 442.254 64.3086L442.191 63.9648V63.9023C442.191 63.4648 442.368 63.0794 442.723 62.7461C443.077 62.4128 443.462 62.2461 443.879 62.2461H443.941C443.962 62.2461 444.139 62.2565 444.473 62.2773C444.806 62.2982 445.233 62.319 445.754 62.3398C446.296 62.3607 446.91 62.3815 447.598 62.4023C448.306 62.4232 449.025 62.4336 449.754 62.4336C450.816 62.4336 451.858 62.4128 452.879 62.3711C453.921 62.3294 454.796 62.2461 455.504 62.1211C455.546 62.0794 455.587 62.0586 455.629 62.0586C455.691 62.0586 455.743 62.0586 455.785 62.0586C456.223 62.0586 456.608 62.2357 456.941 62.5898C457.275 62.9232 457.441 63.2982 457.441 63.7148Z" fill="black"/>
<path d="M395.566 77.5586C394.796 75.2044 393.983 73.0378 393.129 71.0586C392.275 69.0586 391.431 67.2669 390.598 65.6836C389.785 64.0794 389.004 62.6836 388.254 61.4961C387.525 60.2878 386.9 59.2982 386.379 58.5273C384.441 61.819 382.702 65.0378 381.16 68.1836C379.639 71.3086 378.285 74.4336 377.098 77.5586C378.764 77.7461 380.368 77.9023 381.91 78.0273C383.452 78.1315 384.983 78.1836 386.504 78.1836C388.004 78.1836 389.493 78.1315 390.973 78.0273C392.473 77.9023 394.004 77.7461 395.566 77.5586ZM416.879 94.7148C416.837 94.7148 416.796 94.7044 416.754 94.6836C416.712 94.6836 416.671 94.6628 416.629 94.6211C414.733 94.3294 412.858 94.1211 411.004 93.9961C409.171 93.8711 407.337 93.8086 405.504 93.8086C403.691 93.8086 401.9 93.8711 400.129 93.9961C398.379 94.1211 396.629 94.3294 394.879 94.6211C394.837 94.6628 394.796 94.6836 394.754 94.6836C394.712 94.7044 394.671 94.7148 394.629 94.7148C394.171 94.7148 393.775 94.5378 393.441 94.1836C393.129 93.8294 392.973 93.444 392.973 93.0273C392.973 92.6523 393.098 92.3086 393.348 91.9961C393.618 91.6836 393.962 91.4961 394.379 91.4336C395.212 91.2669 396.056 91.1419 396.91 91.0586C397.764 90.9544 398.639 90.8503 399.535 90.7461C399.431 90.3503 399.306 89.8607 399.16 89.2773C399.014 88.6732 398.816 87.9648 398.566 87.1523C398.337 86.3398 398.056 85.4023 397.723 84.3398C397.41 83.2565 397.035 82.0378 396.598 80.6836C394.827 80.9336 393.118 81.1315 391.473 81.2773C389.827 81.4023 388.171 81.4648 386.504 81.4648C384.816 81.4648 383.108 81.4023 381.379 81.2773C379.65 81.1315 377.837 80.9336 375.941 80.6836C374.837 83.9753 373.941 87.2357 373.254 90.4648C374.546 90.5065 375.837 90.6107 377.129 90.7773C378.441 90.9232 379.775 91.1419 381.129 91.4336C381.504 91.4961 381.806 91.6836 382.035 91.9961C382.285 92.3086 382.41 92.6523 382.41 93.0273C382.41 93.5065 382.223 93.9023 381.848 94.2148C381.493 94.5482 381.118 94.7148 380.723 94.7148C380.66 94.7148 380.608 94.694 380.566 94.6523C380.525 94.6315 380.473 94.6211 380.41 94.6211C379.035 94.3294 377.681 94.1107 376.348 93.9648C375.035 93.819 373.723 93.7461 372.41 93.7461C371.118 93.7461 369.848 93.819 368.598 93.9648C367.348 94.1107 366.077 94.3294 364.785 94.6211C364.723 94.6211 364.671 94.6315 364.629 94.6523C364.587 94.694 364.535 94.7148 364.473 94.7148C363.993 94.7148 363.598 94.5482 363.285 94.2148C362.973 93.8815 362.816 93.4857 362.816 93.0273C362.816 92.6523 362.931 92.319 363.16 92.0273C363.389 91.7357 363.702 91.5378 364.098 91.4336C365.035 91.2044 365.973 91.0273 366.91 90.9023C367.868 90.7773 368.848 90.6732 369.848 90.5898C370.556 87.1523 371.483 83.7148 372.629 80.2773C373.775 76.8398 375.139 73.3711 376.723 69.8711C378.327 66.3503 380.16 62.7773 382.223 59.1523C384.285 55.5273 386.608 51.7982 389.191 47.9648C389.379 47.7148 389.587 47.5378 389.816 47.4336C390.066 47.3294 390.306 47.2773 390.535 47.2773C390.785 47.2773 391.025 47.3294 391.254 47.4336C391.483 47.5169 391.671 47.6523 391.816 47.8398C396.191 53.4232 399.941 59.7565 403.066 66.8398C406.212 73.9023 408.796 81.8503 410.816 90.6836C412.941 90.8711 415.056 91.1211 417.16 91.4336C417.577 91.4961 417.91 91.6836 418.16 91.9961C418.431 92.3086 418.566 92.6523 418.566 93.0273C418.566 93.4857 418.379 93.8815 418.004 94.2148C417.65 94.5482 417.275 94.7148 416.879 94.7148Z" fill="black"/>
<path d="M342.191 94.4336H341.879C341.046 94.2878 340.285 94.1628 339.598 94.0586C338.91 93.9544 338.254 93.8815 337.629 93.8398C337.004 93.7773 336.368 93.7357 335.723 93.7148C335.098 93.694 334.421 93.6836 333.691 93.6836C332.212 93.6836 330.775 93.7461 329.379 93.8711C327.983 93.9753 326.452 94.1836 324.785 94.4961H324.473C323.952 94.4961 323.556 94.3294 323.285 93.9961C323.014 93.6836 322.879 93.2982 322.879 92.8398C322.879 92.4648 322.993 92.1315 323.223 91.8398C323.452 91.5482 323.764 91.3503 324.16 91.2461C324.931 91.1211 325.629 91.0273 326.254 90.9648C326.879 90.8815 327.546 90.8086 328.254 90.7461V52.5898C326.941 52.4857 325.993 52.3919 325.41 52.3086C324.848 52.2044 324.514 52.1523 324.41 52.1523C323.993 52.0898 323.65 51.9023 323.379 51.5898C323.129 51.2773 323.004 50.9232 323.004 50.5273C323.004 49.9857 323.191 49.5794 323.566 49.3086C323.941 49.0169 324.306 48.8711 324.66 48.8711H324.848C324.868 48.8711 325.056 48.9023 325.41 48.9648C325.764 49.0065 326.243 49.069 326.848 49.1523C327.473 49.2148 328.202 49.2773 329.035 49.3398C329.889 49.3815 330.816 49.4023 331.816 49.4023C332.816 49.4023 333.796 49.3711 334.754 49.3086C335.712 49.2253 336.587 49.1003 337.379 48.9336C337.441 48.8919 337.556 48.8711 337.723 48.8711C338.202 48.8711 338.598 49.0482 338.91 49.4023C339.223 49.7357 339.379 50.1107 339.379 50.5273L339.316 90.7461C339.671 90.7878 339.962 90.8294 340.191 90.8711C340.441 90.8919 340.671 90.9232 340.879 90.9648C341.108 90.9857 341.337 91.0169 341.566 91.0586C341.816 91.0794 342.129 91.1211 342.504 91.1836C342.9 91.2878 343.223 91.4857 343.473 91.7773C343.723 92.069 343.848 92.4023 343.848 92.7773C343.848 93.2565 343.671 93.6523 343.316 93.9648C342.983 94.2773 342.608 94.4336 342.191 94.4336Z" fill="black"/>
<path d="M316.566 77.4961V76.9648C316.566 75.4023 316.4 73.9544 316.066 72.6211C315.733 71.2878 315.202 70.1107 314.473 69.0898C313.764 68.0482 312.848 67.194 311.723 66.5273C310.598 65.8607 309.243 65.4128 307.66 65.1836C306.556 65.3086 305.598 65.6107 304.785 66.0898C303.973 66.569 303.275 67.1628 302.691 67.8711C302.129 68.5586 301.66 69.3398 301.285 70.2148C300.91 71.0898 300.608 71.9961 300.379 72.9336C300.171 73.8503 300.014 74.7773 299.91 75.7148C299.806 76.6315 299.743 77.4961 299.723 78.3086C300.056 78.4128 300.473 78.5273 300.973 78.6523C301.493 78.7773 302.077 78.9023 302.723 79.0273C303.368 79.1315 304.066 79.2253 304.816 79.3086C305.587 79.3711 306.389 79.4023 307.223 79.4023C308.993 79.4023 310.65 79.2357 312.191 78.9023C313.754 78.569 315.212 78.1003 316.566 77.4961ZM319.754 78.7148C319.691 79.2565 319.4 79.7253 318.879 80.1211C318.358 80.5169 317.702 80.8711 316.91 81.1836C316.118 81.4753 315.243 81.7253 314.285 81.9336C313.348 82.1211 312.421 82.2773 311.504 82.4023C310.587 82.5273 309.743 82.6211 308.973 82.6836C308.202 82.7253 307.598 82.7461 307.16 82.7461C305.639 82.7461 304.233 82.6419 302.941 82.4336C301.671 82.2253 300.618 82.0065 299.785 81.7773C299.91 83.069 300.15 84.3398 300.504 85.5898C300.858 86.8398 301.368 87.9648 302.035 88.9648C302.702 89.944 303.535 90.7461 304.535 91.3711C305.535 91.9753 306.743 92.2773 308.16 92.2773C308.681 92.2773 309.275 92.2148 309.941 92.0898C310.608 91.944 311.264 91.7461 311.91 91.4961C312.556 91.2253 313.15 90.9128 313.691 90.5586C314.233 90.1836 314.66 89.7669 314.973 89.3086C315.327 88.8919 315.754 88.6836 316.254 88.6836C316.691 88.6836 317.077 88.8607 317.41 89.2148C317.743 89.5482 317.91 89.9232 317.91 90.3398C317.91 90.7773 317.775 91.1211 317.504 91.3711C317.004 92.1419 316.306 92.7982 315.41 93.3398C314.514 93.8815 313.546 94.319 312.504 94.6523C311.462 95.0065 310.41 95.2565 309.348 95.4023C308.285 95.569 307.316 95.6523 306.441 95.6523C303.941 95.6523 301.618 95.2044 299.473 94.3086C297.327 93.4336 295.462 92.2253 293.879 90.6836C292.296 89.1419 291.046 87.3294 290.129 85.2461C289.233 83.1628 288.785 80.9128 288.785 78.4961C288.785 75.8503 289.181 73.4961 289.973 71.4336C290.764 69.3503 291.889 67.6003 293.348 66.1836C294.806 64.7461 296.577 63.6628 298.66 62.9336C300.743 62.1836 303.087 61.8086 305.691 61.8086C308.15 61.9128 310.264 62.3294 312.035 63.0586C313.827 63.7878 315.296 64.7982 316.441 66.0898C317.587 67.3815 318.431 68.944 318.973 70.7773C319.535 72.5898 319.816 74.6315 319.816 76.9023C319.816 77.4232 319.806 77.8398 319.785 78.1523C319.764 78.444 319.754 78.6315 319.754 78.7148Z" fill="black"/>
<path d="M287.16 63.0273C287.16 63.4023 287.046 63.7357 286.816 64.0273C286.587 64.319 286.275 64.5169 285.879 64.6211C285.171 64.7878 284.504 64.9232 283.879 65.0273C283.254 65.1107 282.639 65.1836 282.035 65.2461C281.535 67.4961 280.816 69.9023 279.879 72.4648C278.962 75.0065 277.889 77.6003 276.66 80.2461C275.431 82.8711 274.077 85.4753 272.598 88.0586C271.139 90.6419 269.598 93.0898 267.973 95.4023C267.848 95.5898 267.671 95.7565 267.441 95.9023C267.233 96.0482 267.004 96.1211 266.754 96.1211C266.462 96.1211 266.212 96.069 266.004 95.9648C265.816 95.8815 265.639 95.7565 265.473 95.5898C264.16 94.2357 262.775 92.6003 261.316 90.6836C259.879 88.7669 258.473 86.5586 257.098 84.0586C255.743 81.5378 254.493 78.694 253.348 75.5273C252.223 72.3607 251.316 68.8503 250.629 64.9961C250.171 64.9336 249.712 64.8815 249.254 64.8398C248.816 64.7982 248.379 64.7253 247.941 64.6211C247.525 64.5586 247.181 64.3815 246.91 64.0898C246.66 63.7982 246.535 63.444 246.535 63.0273C246.535 62.4857 246.723 62.0794 247.098 61.8086C247.473 61.5169 247.837 61.3711 248.191 61.3711C248.233 61.3711 248.264 61.3815 248.285 61.4023C248.327 61.4232 248.379 61.4336 248.441 61.4336C249.796 61.6211 251.108 61.7773 252.379 61.9023C253.671 62.0065 254.962 62.0586 256.254 62.0586C257.546 62.0586 258.806 62.0065 260.035 61.9023C261.285 61.7773 262.525 61.6211 263.754 61.4336C263.816 61.4336 263.858 61.4232 263.879 61.4023C263.921 61.3815 263.962 61.3711 264.004 61.3711C264.483 61.3711 264.879 61.5378 265.191 61.8711C265.504 62.1836 265.66 62.569 265.66 63.0273C265.66 63.4023 265.535 63.7461 265.285 64.0586C265.035 64.3711 264.712 64.5586 264.316 64.6211C263.421 64.8086 262.504 64.9336 261.566 64.9961C261.754 65.9336 262.077 67.1836 262.535 68.7461C262.993 70.3086 263.608 72.069 264.379 74.0273C264.837 75.194 265.337 76.3294 265.879 77.4336C266.441 78.5378 266.993 79.5794 267.535 80.5586C268.098 81.5169 268.629 82.3919 269.129 83.1836C269.65 83.9753 270.098 84.6523 270.473 85.2148C271.41 83.5273 272.296 81.819 273.129 80.0898C273.962 78.3398 274.723 76.6211 275.41 74.9336C276.118 73.2253 276.743 71.5586 277.285 69.9336C277.827 68.3086 278.285 66.7461 278.66 65.2461C278.056 65.1836 277.431 65.1107 276.785 65.0273C276.139 64.9232 275.462 64.7878 274.754 64.6211C274.358 64.5586 274.035 64.3711 273.785 64.0586C273.535 63.7461 273.41 63.4023 273.41 63.0273C273.41 62.5482 273.587 62.1523 273.941 61.8398C274.316 61.5273 274.691 61.3711 275.066 61.3711C275.129 61.3711 275.181 61.3815 275.223 61.4023C275.264 61.4232 275.316 61.4336 275.379 61.4336C276.358 61.6211 277.243 61.7669 278.035 61.8711C278.827 61.9544 279.608 61.9961 280.379 61.9961C281.15 61.9961 281.91 61.9544 282.66 61.8711C283.431 61.7669 284.254 61.6211 285.129 61.4336C285.191 61.4336 285.254 61.4232 285.316 61.4023C285.379 61.3815 285.441 61.3711 285.504 61.3711C285.962 61.3711 286.348 61.5482 286.66 61.9023C286.993 62.2357 287.16 62.6107 287.16 63.0273Z" fill="black"/>
<path d="M231.785 83.0586C231.743 82.7044 231.712 82.3398 231.691 81.9648C231.671 81.5898 231.66 81.2044 231.66 80.8086H230.504C229.671 80.8086 228.681 80.8711 227.535 80.9961C226.41 81.1211 225.243 81.319 224.035 81.5898C222.827 81.8607 221.629 82.2253 220.441 82.6836C219.254 83.1211 218.191 83.6628 217.254 84.3086C216.316 84.9336 215.556 85.6732 214.973 86.5273C214.41 87.3815 214.129 88.3607 214.129 89.4648C214.129 90.0482 214.264 90.5482 214.535 90.9648C214.827 91.3815 215.181 91.7253 215.598 91.9961C216.035 92.2461 216.514 92.4336 217.035 92.5586C217.556 92.6628 218.056 92.7148 218.535 92.7148C220.014 92.7148 221.41 92.4336 222.723 91.8711C224.056 91.2878 225.285 90.5378 226.41 89.6211C227.535 88.6836 228.546 87.6419 229.441 86.4961C230.337 85.3503 231.118 84.2044 231.785 83.0586ZM246.754 93.8711H246.629C246.275 93.8294 245.91 93.8086 245.535 93.8086C245.16 93.8086 244.796 93.8086 244.441 93.8086C242.483 93.8086 240.598 93.9336 238.785 94.1836C236.993 94.4336 235.191 94.819 233.379 95.3398C233.316 95.3398 233.254 95.3503 233.191 95.3711C233.129 95.3919 233.046 95.4023 232.941 95.4023C232.462 95.4023 232.066 95.2148 231.754 94.8398C231.462 94.4857 231.316 94.1211 231.316 93.7461V93.4961C231.316 93.4544 231.368 93.0378 231.473 92.2461C231.577 91.4336 231.681 90.3086 231.785 88.8711C230.889 89.8711 229.931 90.8086 228.91 91.6836C227.91 92.5378 226.848 93.2878 225.723 93.9336C224.618 94.5586 223.473 95.0482 222.285 95.4023C221.098 95.7773 219.868 95.9648 218.598 95.9648C217.598 95.9648 216.629 95.8086 215.691 95.4961C214.754 95.2044 213.921 94.7773 213.191 94.2148C212.483 93.6523 211.91 92.9753 211.473 92.1836C211.056 91.3711 210.848 90.4648 210.848 89.4648C210.848 87.9023 211.181 86.5273 211.848 85.3398C212.535 84.1523 213.431 83.1211 214.535 82.2461C215.639 81.3503 216.889 80.6107 218.285 80.0273C219.702 79.4232 221.139 78.944 222.598 78.5898C224.056 78.2148 225.473 77.9544 226.848 77.8086C228.223 77.6419 229.441 77.5586 230.504 77.5586H231.254C231.254 76.2878 231.025 75.0482 230.566 73.8398C230.129 72.6315 229.504 71.5586 228.691 70.6211C227.9 69.6836 226.952 68.9336 225.848 68.3711C224.743 67.7878 223.525 67.4961 222.191 67.4961C221.212 67.4961 220.254 67.7773 219.316 68.3398C218.379 68.8815 217.546 69.5794 216.816 70.4336C216.087 71.2878 215.493 72.2461 215.035 73.3086C214.598 74.3711 214.379 75.4023 214.379 76.4023C214.379 76.819 214.202 77.1732 213.848 77.4648C213.514 77.7357 213.139 77.8711 212.723 77.8711C212.264 77.8711 211.868 77.7044 211.535 77.3711C211.202 77.0169 211.035 76.6315 211.035 76.2148C211.035 75.2148 211.212 74.1732 211.566 73.0898C211.921 71.9857 212.431 70.9128 213.098 69.8711C213.785 68.8086 214.608 67.8086 215.566 66.8711C216.546 65.9336 217.65 65.1107 218.879 64.4023C220.129 63.6732 221.493 63.1003 222.973 62.6836C224.452 62.2669 226.025 62.0586 227.691 62.0586C230.025 62.0586 232.014 62.4232 233.66 63.1523C235.327 63.8815 236.712 64.8711 237.816 66.1211C238.941 67.3711 239.827 68.819 240.473 70.4648C241.118 72.1107 241.608 73.8503 241.941 75.6836C242.275 77.5169 242.483 79.3815 242.566 81.2773C242.671 83.1732 242.723 84.9857 242.723 86.7148C242.723 87.5898 242.712 88.3398 242.691 88.9648C242.671 89.5898 242.66 90.1107 242.66 90.5273C242.973 90.5273 243.285 90.5169 243.598 90.4961C243.931 90.4753 244.254 90.4648 244.566 90.4648C244.921 90.4648 245.285 90.4753 245.66 90.4961C246.056 90.5169 246.441 90.5273 246.816 90.5273C247.275 90.569 247.639 90.7461 247.91 91.0586C248.202 91.3711 248.348 91.7565 248.348 92.2148C248.348 92.6523 248.191 93.0378 247.879 93.3711C247.587 93.7044 247.212 93.8711 246.754 93.8711Z" fill="black"/>
<path d="M201.004 78.4961C200.233 78.4961 199.504 78.3503 198.816 78.0586C198.15 77.7669 197.566 77.3711 197.066 76.8711C196.566 76.3711 196.171 75.7878 195.879 75.1211C195.587 74.4336 195.441 73.7044 195.441 72.9336C195.441 72.1628 195.587 71.444 195.879 70.7773C196.171 70.0898 196.566 69.4961 197.066 68.9961C197.566 68.4753 198.15 68.069 198.816 67.7773C199.504 67.4648 200.233 67.3086 201.004 67.3086C201.108 67.3086 201.202 67.319 201.285 67.3398C201.389 67.3607 201.493 67.3711 201.598 67.3711C201.056 66.9544 200.421 66.6419 199.691 66.4336C198.983 66.2044 198.16 66.0898 197.223 66.0898C196.035 66.0898 195.004 66.3398 194.129 66.8398C193.254 67.319 192.504 67.9336 191.879 68.6836C191.275 69.4128 190.785 70.2148 190.41 71.0898C190.035 71.944 189.733 72.7565 189.504 73.5273C189.296 74.2773 189.15 74.9232 189.066 75.4648C189.004 76.0065 188.973 76.319 188.973 76.4023L188.91 90.2773C189.639 90.3398 190.368 90.4336 191.098 90.5586C191.848 90.6836 192.608 90.8086 193.379 90.9336C193.775 91.0378 194.098 91.2461 194.348 91.5586C194.598 91.8503 194.723 92.194 194.723 92.5898C194.723 93.0482 194.546 93.4336 194.191 93.7461C193.837 94.0378 193.462 94.1836 193.066 94.1836H192.754C191.066 93.8711 189.462 93.6315 187.941 93.4648C186.421 93.2982 184.91 93.2148 183.41 93.2148C181.91 93.2148 180.41 93.2982 178.91 93.4648C177.41 93.6315 175.816 93.8711 174.129 94.1836H173.816C173.337 94.1836 172.952 94.0273 172.66 93.7148C172.368 93.3815 172.223 93.0065 172.223 92.5898C172.223 92.194 172.337 91.8503 172.566 91.5586C172.796 91.2461 173.108 91.0378 173.504 90.9336C174.233 90.8086 174.962 90.6836 175.691 90.5586C176.421 90.4336 177.139 90.3398 177.848 90.2773V66.9961C176.535 66.9336 175.431 66.8503 174.535 66.7461C173.639 66.6419 173.139 66.569 173.035 66.5273C172.618 66.4857 172.275 66.319 172.004 66.0273C171.754 65.7148 171.629 65.3503 171.629 64.9336C171.629 64.4128 171.806 64.0065 172.16 63.7148C172.535 63.4232 172.91 63.2773 173.285 63.2773H173.504C173.525 63.2982 173.764 63.3398 174.223 63.4023C174.681 63.444 175.275 63.4961 176.004 63.5586C176.733 63.6211 177.566 63.6732 178.504 63.7148C179.462 63.7565 180.431 63.7773 181.41 63.7773C182.41 63.7773 183.389 63.7461 184.348 63.6836C185.306 63.6211 186.191 63.5065 187.004 63.3398C187.046 63.2982 187.15 63.2773 187.316 63.2773C187.796 63.2773 188.191 63.4544 188.504 63.8086C188.816 64.1419 188.973 64.5169 188.973 64.9336V67.1836C189.868 65.9336 190.993 64.9023 192.348 64.0898C193.723 63.2565 195.348 62.8398 197.223 62.8398C198.639 62.8815 199.931 63.1315 201.098 63.5898C202.264 64.0273 203.264 64.6419 204.098 65.4336C204.952 66.2044 205.608 67.1419 206.066 68.2461C206.546 69.3294 206.785 70.5482 206.785 71.9023C206.785 72.7565 206.65 73.5794 206.379 74.3711C206.108 75.1628 205.723 75.8711 205.223 76.4961C204.723 77.1003 204.108 77.5898 203.379 77.9648C202.671 78.319 201.879 78.4961 201.004 78.4961Z" fill="black"/>
<path d="M169.191 60.9648C169.191 61.0273 169.202 61.1107 169.223 61.2148C169.243 61.2982 169.254 61.3919 169.254 61.4961C169.254 61.9336 169.077 62.319 168.723 62.6523C168.389 62.9857 168.014 63.1523 167.598 63.1523C167.264 63.1523 166.952 63.0482 166.66 62.8398C166.389 62.6315 166.191 62.3503 166.066 61.9961C165.796 61.2044 165.535 60.3607 165.285 59.4648C165.035 58.5482 164.806 57.6523 164.598 56.7773C164.41 55.9023 164.233 55.0794 164.066 54.3086C163.9 53.5378 163.775 52.8815 163.691 52.3398C162.504 52.4023 161.15 52.4544 159.629 52.4961C158.108 52.5169 156.473 52.5273 154.723 52.5273L153.691 91.1211C155.4 91.1836 157.046 91.3086 158.629 91.4961C159.087 91.5378 159.441 91.7148 159.691 92.0273C159.962 92.319 160.098 92.6732 160.098 93.0898C160.098 93.6107 159.921 94.0169 159.566 94.3086C159.233 94.6211 158.879 94.7773 158.504 94.7773H158.316C156.629 94.569 154.962 94.4232 153.316 94.3398C151.671 94.2773 150.025 94.2461 148.379 94.2461C146.712 94.2461 145.077 94.2773 143.473 94.3398C141.868 94.4232 140.264 94.569 138.66 94.7773H138.473C138.014 94.7773 137.618 94.6003 137.285 94.2461C136.973 93.8919 136.816 93.5065 136.816 93.0898C136.816 92.6732 136.952 92.319 137.223 92.0273C137.514 91.7148 137.868 91.5378 138.285 91.4961C139.889 91.3086 141.462 91.1836 143.004 91.1211L143.723 52.3398C141.952 52.2773 140.285 52.2044 138.723 52.1211C137.181 52.0169 135.796 51.9128 134.566 51.8086C134.441 52.3711 134.285 53.0586 134.098 53.8711C133.931 54.6836 133.733 55.5482 133.504 56.4648C133.296 57.3815 133.077 58.319 132.848 59.2773C132.618 60.2148 132.379 61.1003 132.129 61.9336C132.025 62.2878 131.827 62.5794 131.535 62.8086C131.264 63.0378 130.952 63.1523 130.598 63.1523C130.118 63.1523 129.723 62.9857 129.41 62.6523C129.098 62.2982 128.941 61.9128 128.941 61.4961C128.941 61.4336 128.941 61.3607 128.941 61.2773C128.941 61.1732 128.962 61.0898 129.004 61.0273C129.316 59.9232 129.629 58.7148 129.941 57.4023C130.254 56.0898 130.535 54.8607 130.785 53.7148C131.056 52.569 131.275 51.6107 131.441 50.8398C131.608 50.069 131.691 49.6732 131.691 49.6523C131.796 49.2565 131.983 48.944 132.254 48.7148C132.546 48.4857 132.889 48.3711 133.285 48.3711H133.535C134.618 48.5169 135.931 48.6419 137.473 48.7461C139.035 48.8503 140.712 48.944 142.504 49.0273C144.316 49.0898 146.191 49.1419 148.129 49.1836C150.066 49.2253 151.962 49.2461 153.816 49.2461C156.087 49.2461 158.181 49.2253 160.098 49.1836C162.014 49.1211 163.618 49.0378 164.91 48.9336H165.035C165.41 48.9336 165.754 49.069 166.066 49.3398C166.379 49.5898 166.566 49.9023 166.629 50.2773C166.629 50.2982 166.66 50.4753 166.723 50.8086C166.785 51.1419 166.868 51.5898 166.973 52.1523C167.077 52.7148 167.202 53.3607 167.348 54.0898C167.514 54.819 167.691 55.5794 167.879 56.3711C168.066 57.1419 168.264 57.9336 168.473 58.7461C168.702 59.5378 168.941 60.2773 169.191 60.9648Z" fill="black"/>
<path d="M221.875 94.6289C219.466 87.2721 216.927 80.5013 214.258 74.3164C211.589 68.0664 208.952 62.4674 206.348 57.5195C203.809 52.5065 201.367 48.1445 199.023 44.4336C196.745 40.6576 194.792 37.5651 193.164 35.1562C187.109 45.4427 181.673 55.5013 176.855 65.332C172.103 75.0977 167.871 84.8633 164.16 94.6289C169.368 95.2148 174.382 95.7031 179.199 96.0938C184.017 96.4193 188.802 96.582 193.555 96.582C198.242 96.582 202.897 96.4193 207.52 96.0938C212.207 95.7031 216.992 95.2148 221.875 94.6289ZM288.477 148.242C288.346 148.242 288.216 148.21 288.086 148.145C287.956 148.145 287.826 148.079 287.695 147.949C281.771 147.038 275.911 146.387 270.117 145.996C264.388 145.605 258.659 145.41 252.93 145.41C247.266 145.41 241.667 145.605 236.133 145.996C230.664 146.387 225.195 147.038 219.727 147.949C219.596 148.079 219.466 148.145 219.336 148.145C219.206 148.21 219.076 148.242 218.945 148.242C217.513 148.242 216.276 147.689 215.234 146.582C214.258 145.475 213.77 144.271 213.77 142.969C213.77 141.797 214.16 140.723 214.941 139.746C215.788 138.77 216.862 138.184 218.164 137.988C220.768 137.467 223.405 137.077 226.074 136.816C228.743 136.491 231.478 136.165 234.277 135.84C233.952 134.603 233.561 133.073 233.105 131.25C232.65 129.362 232.031 127.148 231.25 124.609C230.534 122.07 229.655 119.141 228.613 115.82C227.637 112.435 226.465 108.626 225.098 104.395C219.564 105.176 214.225 105.794 209.082 106.25C203.939 106.641 198.763 106.836 193.555 106.836C188.281 106.836 182.943 106.641 177.539 106.25C172.135 105.794 166.471 105.176 160.547 104.395C157.096 114.681 154.297 124.87 152.148 134.961C156.185 135.091 160.221 135.417 164.258 135.938C168.359 136.393 172.526 137.077 176.758 137.988C177.93 138.184 178.874 138.77 179.59 139.746C180.371 140.723 180.762 141.797 180.762 142.969C180.762 144.466 180.176 145.703 179.004 146.68C177.897 147.721 176.725 148.242 175.488 148.242C175.293 148.242 175.13 148.177 175 148.047C174.87 147.982 174.707 147.949 174.512 147.949C170.215 147.038 165.983 146.354 161.816 145.898C157.715 145.443 153.613 145.215 149.512 145.215C145.475 145.215 141.504 145.443 137.598 145.898C133.691 146.354 129.72 147.038 125.684 147.949C125.488 147.949 125.326 147.982 125.195 148.047C125.065 148.177 124.902 148.242 124.707 148.242C123.21 148.242 121.973 147.721 120.996 146.68C120.02 145.638 119.531 144.401 119.531 142.969C119.531 141.797 119.889 140.755 120.605 139.844C121.322 138.932 122.298 138.314 123.535 137.988C126.465 137.272 129.395 136.719 132.324 136.328C135.319 135.938 138.379 135.612 141.504 135.352C143.717 124.609 146.615 113.867 150.195 103.125C153.776 92.3828 158.04 81.543 162.988 70.6055C168.001 59.6029 173.73 48.4375 180.176 37.1094C186.621 25.7812 193.88 14.1276 201.953 2.14844C202.539 1.36719 203.19 0.813802 203.906 0.488281C204.688 0.16276 205.436 0 206.152 0C206.934 0 207.682 0.16276 208.398 0.488281C209.115 0.748698 209.701 1.17188 210.156 1.75781C223.828 19.2057 235.547 38.9974 245.312 61.1328C255.143 83.2031 263.216 108.04 269.531 135.645C276.172 136.23 282.78 137.012 289.355 137.988C290.658 138.184 291.699 138.77 292.48 139.746C293.327 140.723 293.75 141.797 293.75 142.969C293.75 144.401 293.164 145.638 291.992 146.68C290.885 147.721 289.714 148.242 288.477 148.242Z" fill="black" fill-opacity="0.3"/>
<path d="M125.781 42.7734C125.781 42.9688 125.814 43.2292 125.879 43.5547C125.944 43.8151 125.977 44.1081 125.977 44.4336C125.977 45.8008 125.423 47.0052 124.316 48.0469C123.275 49.0885 122.103 49.6094 120.801 49.6094C119.759 49.6094 118.783 49.2839 117.871 48.6328C117.025 47.9818 116.406 47.1029 116.016 45.9961C115.169 43.5221 114.355 40.8854 113.574 38.0859C112.793 35.2214 112.077 32.4219 111.426 29.6875C110.84 26.9531 110.286 24.3815 109.766 21.9727C109.245 19.5638 108.854 17.513 108.594 15.8203C104.883 16.0156 100.651 16.1784 95.8984 16.3086C91.1458 16.3737 86.0352 16.4062 80.5664 16.4062L77.3438 137.012C82.6823 137.207 87.8255 137.598 92.7734 138.184C94.2057 138.314 95.3125 138.867 96.0938 139.844C96.9401 140.755 97.3633 141.862 97.3633 143.164C97.3633 144.792 96.8099 146.061 95.7031 146.973C94.6615 147.949 93.5547 148.438 92.3828 148.438H91.7969C86.5234 147.786 81.3151 147.331 76.1719 147.07C71.0286 146.875 65.8854 146.777 60.7422 146.777C55.5339 146.777 50.4232 146.875 45.4102 147.07C40.3971 147.331 35.3841 147.786 30.3711 148.438H29.7852C28.3529 148.438 27.1159 147.884 26.0742 146.777C25.0977 145.671 24.6094 144.466 24.6094 143.164C24.6094 141.862 25.0326 140.755 25.8789 139.844C26.7904 138.867 27.8971 138.314 29.1992 138.184C34.2122 137.598 39.1276 137.207 43.9453 137.012L46.1914 15.8203C40.6576 15.625 35.4492 15.3971 30.5664 15.1367C25.7487 14.8112 21.4193 14.4857 17.5781 14.1602C17.1875 15.918 16.6992 18.0664 16.1133 20.6055C15.5924 23.1445 14.974 25.8464 14.2578 28.7109C13.6068 31.5755 12.9232 34.5052 12.207 37.5C11.4909 40.4297 10.7422 43.1966 9.96094 45.8008C9.63542 46.9076 9.01693 47.819 8.10547 48.5352C7.25911 49.2513 6.28255 49.6094 5.17578 49.6094C3.67839 49.6094 2.44141 49.0885 1.46484 48.0469C0.488281 46.9401 0 45.7357 0 44.4336C0 44.2383 0 44.0104 0 43.75C0 43.4245 0.0651042 43.1641 0.195312 42.9688C1.17188 39.5182 2.14844 35.7422 3.125 31.6406C4.10156 27.5391 4.98047 23.6979 5.76172 20.1172C6.60807 16.5365 7.29167 13.5417 7.8125 11.1328C8.33333 8.72396 8.59375 7.48698 8.59375 7.42188C8.91927 6.1849 9.50521 5.20833 10.3516 4.49219C11.263 3.77604 12.3372 3.41797 13.5742 3.41797H14.3555C17.7409 3.8737 21.8424 4.26432 26.6602 4.58984C31.543 4.91536 36.7839 5.20833 42.3828 5.46875C48.0469 5.66406 53.9062 5.82682 59.9609 5.95703C66.0156 6.08724 71.9401 6.15234 77.7344 6.15234C84.8307 6.15234 91.3737 6.08724 97.3633 5.95703C103.353 5.76172 108.366 5.5013 112.402 5.17578H112.793C113.965 5.17578 115.039 5.59896 116.016 6.44531C116.992 7.22656 117.578 8.20312 117.773 9.375C117.773 9.4401 117.871 9.99349 118.066 11.0352C118.262 12.0768 118.522 13.4766 118.848 15.2344C119.173 16.9922 119.564 19.0104 120.02 21.2891C120.54 23.5677 121.094 25.944 121.68 28.418C122.266 30.8268 122.884 33.3008 123.535 35.8398C124.251 38.3138 125 40.625 125.781 42.7734Z" fill="black" fill-opacity="0.3"/>
</svg>
